<?xml version="1.0" standalone="no"?>
<!DOCTYPE svg PUBLIC "-//W3C//DTD SVG 20010904//EN"
 "http://www.w3.org/TR/2001/REC-SVG-20010904/DTD/svg10.dtd">
<svg version="1.0" xmlns="http://www.w3.org/2000/svg"
 width="1500.000000pt" height="1500.000000pt" viewBox="0 0 1500.000000 1500.000000"
 preserveAspectRatio="xMidYMid meet">
<metadata>
Created by potrace 1.14, written by Peter Selinger 2001-2017
</metadata>
<g transform="translate(0.000000,1500.000000) scale(0.100000,-0.100000)"
fill="#000000" stroke="none">
<path d="M3305 14854 c-102 -16 -207 -38 -317 -68 -111 -31 -147 -47 -305
-136 -162 -91 -186 -108 -262 -188 -164 -169 -275 -390 -336 -662 -22 -100
-31 -361 -16 -472 42 -318 212 -643 461 -883 46 -44 71 -80 96 -135 46 -99
130 -208 208 -271 36 -28 67 -57 69 -63 6 -14 368 -898 626 -1526 105 -255
191 -467 191 -472 0 -4 -69 -65 -152 -135 -298 -249 -762 -696 -969 -933 -328
-376 -501 -729 -525 -1073 l-7 -95 -96 -68 c-164 -117 -1044 -780 -1089 -820
-23 -22 -136 -149 -250 -284 -169 -199 -225 -258 -302 -318 l-95 -73 -32 -142
c-65 -289 -132 -738 -168 -1127 -17 -187 -19 -578 -3 -657 8 -39 8 -67 -2
-113 -11 -52 -11 -65 3 -98 9 -20 18 -73 20 -117 3 -51 12 -97 25 -126 17 -40
19 -53 10 -88 -12 -49 4 -100 89 -278 29 -62 53 -121 53 -132 0 -11 -10 -64
-21 -117 l-21 -96 42 -43 c39 -39 43 -49 50 -112 13 -118 131 -398 220 -523
22 -30 60 -84 85 -120 24 -36 60 -87 80 -115 38 -54 44 -75 20 -75 -9 0 -42
-13 -74 -29 -116 -59 -231 -218 -271 -377 -18 -69 -20 -111 -20 -395 0 -294 2
-322 21 -385 55 -179 152 -306 302 -396 72 -44 216 -98 259 -98 14 0 55 -9 90
-20 58 -18 92 -20 471 -20 l407 0 0 74 0 73 51 32 c28 17 52 31 55 31 2 0 23
13 46 30 22 16 45 30 51 30 5 0 36 -27 70 -61 77 -78 140 -118 250 -157 l88
-32 342 0 c367 0 405 4 526 58 46 21 51 21 116 -8 106 -47 155 -52 497 -48
295 4 329 6 391 26 65 20 137 52 183 81 18 12 29 10 85 -17 107 -51 164 -63
329 -72 129 -7 184 -15 325 -50 207 -50 344 -80 367 -80 12 0 34 28 64 79 l45
79 46 -14 c68 -21 661 -20 768 1 120 23 230 81 323 171 l77 75 50 -4 c165 -16
349 -29 560 -38 543 -24 639 -35 745 -79 156 -66 328 -122 415 -135 50 -8 113
-19 140 -26 65 -16 457 -23 510 -10 22 5 78 15 125 20 47 6 137 26 200 45 63
18 162 48 220 65 110 32 203 76 332 156 l78 48 242 -81 c257 -85 507 -165 648
-206 47 -13 171 -49 275 -80 505 -146 900 -228 1039 -213 43 4 76 19 171 76
65 39 119 71 121 71 1 0 54 30 116 68 62 37 125 73 138 79 32 16 220 76 289
93 71 17 186 77 351 185 142 93 164 109 288 216 184 157 253 238 396 469 77
123 181 333 201 407 9 32 23 72 31 89 7 17 21 62 29 99 9 37 22 77 30 89 35
53 155 638 194 941 5 39 16 120 24 180 15 108 26 204 47 397 5 53 10 214 10
357 0 167 4 261 10 261 6 0 10 14 10 30 0 17 -5 30 -11 30 -8 0 -10 42 -7 148
10 292 -47 663 -148 970 l-44 133 -4 327 c-2 269 -7 357 -25 492 -28 207 -78
447 -131 632 -38 133 -52 164 -197 433 -397 737 -348 659 -499 814 -74 77
-185 178 -247 226 -61 48 -113 90 -115 94 -1 4 35 36 80 71 204 158 342 344
422 568 55 155 72 385 41 551 -42 217 -152 449 -296 620 -183 219 -649 555
-1229 888 -372 214 -876 473 -1170 602 -442 194 -995 378 -1550 516 -294 73
-346 85 -600 135 -535 107 -942 166 -1545 226 -141 13 -527 34 -653 34 -359 0
-521 -53 -794 -258 -172 -129 -396 -331 -673 -609 -219 -221 -255 -252 -263
-236 -5 10 -111 267 -236 571 l-225 553 17 62 c11 41 16 99 16 172 0 97 -4
121 -32 203 -18 53 -32 113 -32 140 0 125 -43 360 -97 527 -75 233 -191 432
-343 589 -184 190 -384 301 -655 361 -69 16 -385 29 -450 19z m323 -670 c296
-60 486 -314 547 -732 9 -60 15 -133 13 -162 l-3 -53 -85 -28 c-47 -15 -148
-42 -225 -60 -116 -27 -164 -33 -280 -36 l-140 -3 -60 -44 c-33 -24 -110 -92
-171 -149 l-110 -105 -70 57 c-143 119 -246 272 -300 446 -15 47 -19 90 -18
205 0 131 3 153 28 230 77 236 191 342 436 406 176 46 308 55 438 28z m563
-1112 c72 -28 80 -86 18 -144 l-41 -39 -87 6 c-103 8 -215 -6 -326 -42 -169
-54 -275 -131 -413 -298 -18 -22 -28 -26 -50 -20 -45 11 -65 38 -69 97 -4 47
0 60 34 117 92 154 330 281 603 320 41 6 86 13 100 15 41 7 203 -2 231 -12z
m-23 -284 c11 -29 129 -329 261 -666 133 -337 241 -615 241 -616 0 -2 -39 -6
-88 -9 -219 -16 -463 -118 -664 -279 -15 -12 -29 -20 -31 -17 -2 2 -108 293
-235 645 -181 500 -230 647 -224 664 8 22 9 22 16 4 4 -10 106 -277 227 -593
120 -316 221 -576 223 -579 6 -5 116 89 116 99 0 8 -111 328 -221 639 -73 206
-79 246 -60 360 8 50 8 50 47 -60 69 -198 196 -416 354 -610 l20 -25 -9 25
c-5 14 -79 194 -163 400 -197 478 -202 492 -194 533 11 57 59 93 151 111 93
18 126 22 177 25 35 1 37 -1 56 -51z m3142 -698 c1208 -64 2631 -357 3591
-741 185 -73 451 -190 446 -195 -2 -2 -30 5 -63 16 -89 31 -341 95 -504 129
-1595 327 -3366 110 -5001 -614 -96 -43 -213 -97 -261 -121 l-88 -44 -6 26
c-5 18 -1 29 12 40 41 32 429 216 594 282 248 99 601 226 914 327 l269 88 -72
64 c-151 137 -291 333 -291 407 1 86 78 174 222 252 l63 34 -72 0 c-95 0 -220
-18 -258 -37 -127 -65 -432 -341 -1022 -927 -382 -378 -493 -474 -260 -223
627 675 1087 1110 1281 1209 72 37 197 44 506 28z m-2191 -1660 c196 -492 364
-913 373 -936 l17 -41 -87 -33 c-277 -104 -513 -251 -598 -374 l-20 -28 -49
133 c-274 760 -578 1478 -754 1782 -50 89 -60 111 -50 123 26 32 175 137 238
168 159 80 269 105 444 103 l129 -2 357 -895z m4581 825 c619 -51 1212 -162
1785 -334 896 -268 1622 -668 1858 -1024 139 -209 162 -397 71 -568 -58 -110
-232 -250 -383 -309 l-53 -21 45 51 c130 144 193 312 169 448 -27 149 -90 254
-251 412 -126 125 -213 192 -410 316 -124 78 -137 83 -392 167 -353 116 -523
165 -844 247 -1867 474 -3581 381 -4923 -266 -95 -46 -215 -107 -265 -135
-135 -76 -391 -248 -475 -318 -46 -39 -74 -57 -77 -49 -31 89 -124 433 -118
439 4 4 91 50 193 103 718 370 1577 649 2395 780 230 36 473 62 760 80 133 8
742 -4 915 -19z m-441 -494 c117 -40 197 -87 280 -165 80 -77 137 -159 178
-261 48 -117 45 -121 -34 -68 -93 63 -217 120 -315 145 -160 40 -292 11 -398
-88 -41 -39 -51 -44 -56 -30 -10 26 3 116 22 143 22 34 10 27 -111 -71 -252
-201 -516 -458 -638 -621 -123 -165 -185 -316 -171 -419 6 -44 4 -50 -27 -82
-70 -73 -123 -82 -172 -31 -18 18 -37 41 -43 52 -10 18 -13 17 -32 -21 -23
-45 -84 -104 -108 -104 -23 0 -53 39 -154 199 -230 365 -448 590 -652 676 -43
17 -43 27 1 -83 l21 -53 -42 29 c-66 45 -176 98 -258 124 -65 20 -96 23 -227
23 l-152 0 37 39 c105 110 299 223 471 275 139 43 227 55 391 55 125 -1 159
-4 250 -28 162 -42 338 -102 414 -141 l68 -34 97 80 c300 251 599 415 876 480
64 15 111 18 235 15 144 -2 162 -5 249 -35z m-4773 -1256 c29 -83 54 -151 54
-152 0 0 -46 -34 -102 -74 -638 -453 -1230 -953 -1410 -1190 -110 -145 -167
-284 -153 -375 6 -41 5 -44 -32 -68 -21 -14 -45 -26 -55 -26 -58 0 -72 184
-25 323 54 155 148 311 298 492 115 138 570 591 764 760 261 228 574 469 599
462 4 -2 33 -70 62 -152z m5221 105 c354 -141 655 -467 719 -780 23 -117 15
-329 -21 -498 -30 -145 -103 -370 -171 -531 l-49 -114 -7 49 c-4 27 -10 75
-15 106 l-8 57 -77 -89 c-185 -213 -401 -354 -598 -390 -156 -29 -471 38 -502
106 -9 20 -4 32 41 91 173 231 214 461 114 645 -53 96 -214 228 -346 283 -37
15 -36 14 28 -47 160 -149 247 -338 232 -502 -8 -80 -39 -164 -92 -247 -36
-55 -59 -77 -135 -128 -200 -133 -418 -211 -594 -211 -75 0 -162 20 -203 47
-50 33 -85 150 -98 328 -6 82 -5 96 19 160 64 167 148 245 265 245 144 0 285
223 231 366 -51 134 -235 202 -475 176 -127 -14 -573 -112 -697 -153 -182 -60
-215 -112 -173 -274 49 -187 149 -288 268 -271 23 3 77 9 119 12 71 6 80 4
122 -20 61 -36 111 -97 156 -191 52 -112 74 -195 65 -261 -16 -127 -135 -279
-270 -345 -63 -31 -78 -34 -155 -34 -56 0 -104 7 -140 19 -270 92 -550 323
-616 508 -37 105 1 276 85 387 l26 35 -44 -25 c-57 -31 -148 -113 -167 -151
-39 -75 -99 -89 -190 -43 l-49 25 -211 467 c-245 543 -233 472 -99 609 92 93
175 140 268 150 31 4 57 3 57 -1 0 -4 -21 -30 -46 -58 -54 -60 -118 -165 -140
-230 -37 -108 4 -244 117 -397 60 -82 129 -145 199 -181 68 -36 166 -34 240 5
174 91 423 349 499 518 27 59 35 67 78 86 62 26 177 48 357 67 115 12 155 20
202 42 52 25 71 28 155 28 l97 0 136 -93 c245 -168 415 -233 606 -234 160 0
342 57 532 169 98 57 235 188 266 254 46 95 21 184 -76 271 -46 41 -76 53
-123 46 -28 -4 -30 -3 -24 21 15 63 72 132 125 154 29 12 110 -2 187 -33z
m-796 -359 c16 -97 3 -144 -49 -170 -42 -21 -172 -51 -224 -51 l-33 0 98 102
c54 57 117 129 140 160 48 66 51 65 68 -41z m-3343 21 c12 -8 656 -1382 650
-1387 -51 -37 -151 -98 -216 -131 -108 -55 -170 -69 -256 -58 l-67 9 -230 485
c-238 502 -261 550 -254 550 2 0 58 -85 126 -190 67 -104 123 -190 125 -190 5
0 5 1 -151 360 -70 162 -131 299 -136 304 -19 21 -188 -79 -233 -139 l-26 -34
310 -602 c171 -331 309 -602 308 -603 -2 -1 -13 -7 -25 -14 -22 -12 -29 -1
-338 618 -173 346 -315 636 -315 644 0 17 123 130 217 198 135 98 269 160 385
177 84 12 111 12 126 3z m1257 -204 c33 -25 93 -67 133 -93 69 -46 72 -50 50
-59 -13 -5 -70 -10 -128 -10 -188 1 -220 28 -220 190 0 50 3 94 7 98 4 3 27
-13 52 -37 25 -24 73 -64 106 -89z m-1664 -1104 c95 -52 145 -144 137 -252
-11 -143 -120 -244 -263 -244 -109 0 -194 55 -241 157 -68 145 20 325 179 366
55 14 133 3 188 -27z m-484 -296 c-3 -7 -5 -2 -5 12 0 14 2 19 5 13 2 -7 2
-19 0 -25z m1829 -22 c107 -49 185 -132 226 -239 23 -59 17 -67 -54 -67 -125
0 -429 -52 -571 -96 -87 -28 -193 -72 -186 -78 2 -2 56 5 119 14 195 30 375
43 519 37 213 -8 265 -32 336 -152 32 -54 83 -191 74 -199 -2 -2 -44 5 -94 16
-147 31 -185 25 -443 -77 -122 -49 -221 -90 -219 -92 2 -2 60 6 128 18 152 25
384 36 457 20 173 -37 287 -163 298 -332 4 -56 -1 -104 -20 -198 -15 -69 -28
-126 -29 -127 -2 -2 -28 15 -57 37 -105 79 -229 129 -320 129 -107 0 -205 -73
-236 -176 -9 -31 -13 -89 -11 -182 2 -134 1 -138 -29 -202 -42 -89 -98 -141
-282 -263 -201 -133 -334 -239 -450 -361 -51 -54 -97 -96 -102 -94 -29 10
-182 144 -281 245 -229 236 -360 450 -426 700 -22 85 -26 119 -26 248 l0 150
88 90 c198 204 299 376 341 585 35 170 75 253 168 346 106 107 236 164 369
164 121 0 329 56 506 136 88 40 119 40 207 0z m-1839 -73 c-3 -10 -5 -4 -5 12
0 17 2 24 5 18 2 -7 2 -21 0 -30z m-10 -125 c-2 -13 -4 -5 -4 17 -1 22 1 32 4
23 2 -10 2 -28 0 -40z m696 -24 c3 -4 -11 -29 -31 -58 -88 -121 -128 -196
-161 -301 -12 -38 -34 -88 -48 -109 -24 -37 -26 -38 -39 -21 -58 79 -71 227
-28 313 29 58 102 129 166 161 41 20 127 29 141 15z m3455 -73 c20 -10 47 -30
59 -43 61 -65 88 -202 59 -301 -38 -132 -252 -392 -415 -506 -41 -28 -76 -50
-77 -48 -2 2 1 30 6 62 5 32 8 60 6 62 -1 2 -36 -20 -77 -48 -232 -159 -369
-314 -369 -417 0 -27 -3 -32 -17 -29 -10 3 -43 11 -73 17 -145 32 -282 129
-336 237 -16 32 -31 60 -33 63 -2 3 -26 -21 -55 -53 l-52 -57 -31 32 c-47 49
-193 247 -236 319 -20 35 -45 83 -54 107 -15 41 -15 49 0 114 22 89 62 174 93
194 21 14 29 14 86 0 315 -79 661 -53 923 69 39 17 118 64 177 103 59 39 122
79 140 88 107 56 210 69 276 35z m722 -201 c187 -52 259 -282 133 -429 -77
-91 -214 -118 -321 -65 -93 46 -144 129 -144 234 0 79 17 123 68 180 70 77
168 107 264 80z m1930 -364 c0 -2 -8 -10 -17 -17 -16 -13 -17 -12 -4 4 13 16
21 21 21 13z m-2254 -220 c63 -29 120 -95 139 -160 18 -60 19 -98 2 -153 -41
-139 -190 -220 -328 -180 -234 69 -257 397 -34 498 59 27 157 25 221 -5z
m3831 -12 c-3 -3 -12 -4 -19 -1 -8 3 -5 6 6 6 11 1 17 -2 13 -5z m-4262 -434
c177 -76 212 -317 64 -443 -110 -95 -287 -81 -377 29 -64 77 -78 203 -34 291
21 40 82 101 122 123 57 30 155 30 225 0z m2535 -60 c186 -82 403 -205 580
-331 299 -211 510 -442 635 -694 47 -95 114 -290 104 -299 -2 -2 -59 -6 -125
-9 l-122 -7 -7 38 c-21 112 -102 294 -187 420 -68 101 -233 270 -350 357 -139
105 -325 213 -459 265 l-51 21 47 -58 c167 -208 304 -435 390 -649 42 -104 92
-283 101 -359 l7 -57 -52 35 c-232 160 -550 90 -693 -154 -67 -113 -85 -270
-45 -388 14 -39 14 -42 -1 -38 -209 62 -499 127 -566 127 -13 0 -45 17 -72 39
-27 21 -87 60 -134 86 -47 26 -119 67 -160 91 -76 43 -259 118 -360 147 -30 9
-126 29 -213 46 -143 28 -162 34 -205 67 -53 40 -173 101 -219 110 l-31 6 14
-58 c7 -33 14 -64 14 -70 0 -7 -41 -15 -110 -20 l-110 -9 -5 45 c-18 140 -49
322 -71 411 -13 56 -23 104 -20 106 2 2 50 10 107 18 488 65 1167 309 1924
690 320 162 269 153 445 75z m-6567 -85 c4 -60 13 -148 22 -195 83 -465 279
-744 589 -839 115 -35 176 -97 176 -177 0 -50 -37 -110 -66 -107 -10 2 -85 6
-166 11 -145 8 -147 8 -230 49 -268 134 -413 353 -448 676 -19 166 6 380 70
611 38 138 44 135 53 -29z m8882 75 c21 -22 37 -40 34 -40 -3 0 -23 18 -44 40
-21 22 -37 40 -34 40 3 0 23 -18 44 -40z m502 -72 c-3 -7 -5 -2 -5 12 0 14 2
19 5 13 2 -7 2 -19 0 -25z m-6172 -23 c102 -50 185 -154 253 -317 62 -148 140
-488 187 -811 36 -247 40 -225 -58 -267 -122 -52 -257 -122 -328 -171 -34 -24
-97 -67 -138 -95 l-76 -51 -31 66 c-80 170 -213 284 -404 347 -48 16 -109 19
-499 23 l-444 6 116 98 c65 55 117 101 117 103 0 3 -55 -16 -264 -95 -102 -38
-118 -42 -265 -51 -240 -15 -229 -16 -247 27 -36 85 -30 140 20 187 17 17 56
60 86 96 140 169 332 345 431 396 111 56 358 87 954 119 160 9 299 17 310 18
34 4 -172 97 -307 138 -148 45 -251 91 -273 122 -18 25 -19 62 -4 106 11 32
12 32 64 26 101 -13 558 -11 585 3 42 20 151 9 215 -23z m5780 -15 c27 -27 47
-50 44 -50 -3 0 -27 23 -54 50 -27 28 -47 50 -44 50 3 0 27 -22 54 -50z m136
-157 c13 -16 12 -17 -3 -4 -10 7 -18 15 -18 17 0 8 8 3 21 -13z m30 -40 c13
-16 12 -17 -3 -4 -10 7 -18 15 -18 17 0 8 8 3 21 -13z m-9444 -265 c-2 -13 -4
-5 -4 17 -1 22 1 32 4 23 2 -10 2 -28 0 -40z m4034 -18 c110 -31 205 -233 253
-540 9 -52 17 -126 18 -164 l3 -70 -110 -26 -111 -26 -27 195 c-23 164 -95
554 -113 613 -3 11 2 18 18 21 13 2 25 5 28 6 3 0 21 -4 41 -9z m994 -1347
c262 -51 508 -172 706 -346 63 -56 135 -122 158 -147 64 -67 204 -267 247
-351 49 -98 122 -315 135 -403 5 -39 15 -97 20 -129 13 -75 12 -270 -1 -372
-22 -164 -73 -344 -133 -475 -38 -81 -127 -232 -156 -265 -10 -11 -33 -42 -51
-68 -43 -64 -157 -178 -260 -258 -52 -41 -203 -139 -215 -139 -4 0 -20 -11
-36 -24 -15 -13 -48 -31 -71 -39 -127 -46 -312 -99 -373 -108 -38 -6 -97 -16
-130 -23 -81 -16 -309 -4 -450 23 -224 42 -440 139 -660 296 -105 75 -256 221
-330 320 -29 39 -76 113 -103 165 -57 108 -144 328 -161 410 -7 30 -16 74 -22
97 -16 77 -31 370 -19 411 5 20 10 55 10 77 1 22 7 65 15 95 8 30 22 84 31
120 20 80 58 172 131 315 75 146 116 210 172 266 25 26 80 84 121 129 41 45
86 87 100 93 14 6 59 37 100 68 94 71 166 114 244 144 34 13 78 33 100 44 21
11 82 30 135 41 53 12 121 28 152 36 31 8 94 17 140 20 46 4 86 8 89 11 11 11
244 -10 365 -34z m3225 28 c339 -31 640 -157 885 -370 134 -116 185 -167 210
-206 11 -16 49 -70 86 -120 36 -49 84 -124 107 -165 53 -97 127 -315 141 -416
7 -43 16 -104 21 -134 12 -72 12 -253 -1 -360 -19 -162 -79 -370 -141 -495
-43 -86 -137 -243 -149 -251 -6 -3 -26 -31 -46 -61 -42 -66 -157 -181 -257
-257 -67 -52 -212 -146 -223 -146 -5 0 -18 -9 -27 -19 -30 -33 -326 -133 -451
-152 -38 -6 -97 -16 -130 -23 -79 -15 -306 -4 -450 22 -303 56 -624 231 -860
469 -150 152 -233 279 -314 485 -58 146 -85 236 -101 338 -6 41 -15 95 -20
120 -11 61 -6 267 8 368 14 103 55 256 92 342 16 36 31 76 35 90 4 14 25 54
46 89 22 36 39 69 39 73 0 21 103 168 134 191 18 14 39 38 47 54 15 29 171
183 187 183 4 0 42 25 83 56 90 68 177 120 244 146 27 10 72 30 98 43 27 13
92 33 145 45 54 12 115 26 137 32 51 14 225 35 290 36 28 0 88 -3 135 -7z
m-10900 -45 c25 -11 25 -13 30 -160 5 -162 -1 -370 -12 -381 -3 -4 -39 -8 -80
-9 -77 -3 -119 -18 -180 -64 -81 -61 -121 -143 -122 -252 0 -92 73 -220 274
-476 46 -60 111 -149 144 -199 32 -49 71 -104 86 -121 41 -47 126 -221 152
-310 32 -112 32 -327 -1 -462 -24 -99 -104 -267 -170 -355 -63 -84 -270 -246
-337 -263 -16 -4 -56 -20 -89 -35 -88 -39 -164 -52 -291 -46 -119 5 -207 20
-260 42 -58 24 -64 53 -63 297 2 268 2 272 52 276 21 2 61 -1 87 -7 74 -16
227 9 308 51 71 36 110 75 148 151 23 45 26 59 21 117 -9 96 -30 145 -105 245
-37 50 -78 108 -91 130 -13 22 -41 60 -61 85 -20 25 -54 72 -75 105 -21 33
-52 78 -70 100 -18 22 -40 54 -48 71 -9 17 -32 51 -53 75 -37 44 -114 190
-114 216 0 8 -7 25 -16 39 -40 61 -60 381 -29 461 8 21 21 67 30 102 48 188
224 420 380 498 110 56 202 84 300 93 105 9 219 3 255 -14z m1314 -2 c14 -13
16 -57 18 -307 2 -161 1 -462 -1 -669 -2 -221 0 -378 5 -378 5 0 109 -3 232
-6 166 -4 227 -3 237 6 13 11 15 107 15 667 l0 655 24 21 c23 20 32 21 291 20
226 -1 270 -4 283 -17 14 -13 15 -181 14 -1531 0 -834 -4 -1525 -7 -1536 -4
-11 -18 -24 -32 -30 -13 -5 -135 -9 -271 -9 -228 0 -249 2 -272 20 l-25 19 -3
538 c-2 490 -4 539 -19 551 -20 15 -448 18 -458 3 -3 -5 -8 -256 -11 -558 -5
-486 -8 -549 -22 -560 -12 -10 -86 -13 -289 -13 l-272 0 -16 31 c-15 27 -16
177 -13 1548 2 1269 5 1521 17 1534 12 15 45 17 287 17 234 0 275 -2 288 -16z
m2195 -10 c26 -3 52 -14 65 -27 l22 -22 2 -1472 c3 -1594 5 -1524 -50 -1555
-17 -10 -73 -13 -228 -11 -258 2 -263 3 -286 51 -18 35 -18 106 -19 1511 0
1638 -6 1501 66 1527 33 12 324 10 428 -2z m1907 -8 c22 -30 21 -508 -1 -526
-12 -10 -95 -14 -345 -16 -277 -2 -334 -5 -359 -19 l-31 -16 0 -359 c0 -210 4
-369 10 -385 17 -46 42 -49 387 -49 176 -1 324 -4 328 -8 18 -17 25 -101 25
-299 0 -170 -3 -219 -14 -235 -14 -18 -33 -19 -358 -24 -189 -3 -344 -7 -346
-8 -2 -1 -10 -18 -18 -38 -13 -30 -15 -114 -13 -551 1 -421 -2 -518 -13 -529
-10 -10 -73 -13 -272 -15 l-259 -2 -10 24 c-14 34 -13 3029 1 3055 10 19 27
20 642 19 613 0 632 -1 646 -19z"/>
<path d="M3199 13878 c-57 -213 -12 -378 147 -535 46 -46 88 -83 94 -83 6 0
21 21 32 48 17 36 22 67 22 132 1 111 -28 194 -105 310 -60 89 -98 128 -150
155 l-28 15 -12 -42z"/>
<path d="M8966 3510 c-161 -35 -355 -143 -481 -268 -141 -140 -203 -256 -260
-486 -34 -136 -37 -158 -32 -240 7 -103 53 -286 96 -381 68 -149 193 -290 350
-393 176 -115 326 -157 571 -157 209 0 320 30 459 124 229 156 382 368 447
618 33 127 38 349 11 453 -21 76 -101 248 -148 317 -59 85 -168 201 -233 248
-84 59 -234 130 -332 156 -117 31 -330 35 -448 9z"/>
<path d="M12375 3510 c-103 -22 -265 -97 -365 -168 -133 -94 -263 -252 -315
-381 -44 -108 -95 -325 -95 -406 0 -129 54 -337 121 -465 75 -144 221 -292
377 -381 240 -138 587 -169 835 -75 156 59 343 216 457 384 52 77 115 221 135
307 41 173 38 378 -6 507 -67 196 -220 410 -365 514 -84 60 -231 128 -334 155
-122 31 -323 36 -445 9z"/>
</g>
</svg>
